<?xml version="1.0" standalone="no"?>
<!DOCTYPE svg PUBLIC "-//W3C//DTD SVG 20010904//EN"
 "http://www.w3.org/TR/2001/REC-SVG-20010904/DTD/svg10.dtd">
<svg version="1.0" xmlns="http://www.w3.org/2000/svg"
 width="219.000000pt" height="230.000000pt" viewBox="0 0 219.000000 230.000000"
 preserveAspectRatio="xMidYMid meet">

<g transform="translate(0.000000,230.000000) scale(0.100000,-0.100000)"
fill="#000000" stroke="none">
<path d="M349 2175 c-72 -26 -120 -57 -172 -109 -61 -63 -101 -137 -116 -220
-15 -82 -15 -1310 0 -1392 24 -132 115 -249 238 -308 l66 -31 730 0 730 0 58
27 c66 31 158 114 194 175 49 85 51 104 55 550 1 230 -1 423 -5 429 -3 7 -16
14 -28 17 -17 5 -36 -8 -85 -55 l-63 -60 -3 -362 -3 -362 -26 -49 c-32 -62
-93 -110 -159 -124 -34 -7 -261 -11 -674 -11 -690 0 -687 0 -763 64 -23 20
-49 57 -62 86 -21 50 -22 52 -19 722 3 672 3 673 25 714 12 23 37 54 55 69 70
60 70 59 485 65 l382 5 46 45 c52 50 79 95 71 116 -8 20 -902 20 -957 -1z"/>
<path d="M1653 2108 l-83 -83 200 -200 200 -200 51 50 c85 82 109 121 109 174
0 26 -7 57 -16 71 -27 41 -227 240 -256 256 -15 8 -48 14 -74 14 -45 0 -50 -3
-131 -82z"/>
<path d="M1012 1467 l-462 -462 0 -203 0 -202 198 0 197 0 468 468 467 467
-198 198 c-108 108 -199 197 -202 197 -3 0 -213 -208 -468 -463z m493 256 c0
-15 -73 -97 -234 -263 -129 -133 -245 -249 -258 -257 -19 -13 -26 -13 -38 -3
-9 7 -15 19 -13 25 2 7 116 128 254 270 253 258 289 286 289 228z m-532 -905
c-79 -79 -85 -83 -125 -81 -38 1 -47 7 -105 70 -90 97 -88 112 19 220 l83 83
105 -105 105 -105 -82 -82z"/>
</g>
</svg>
